HIERARCHY
ROOT Pelvis
{
	OFFSET 0.000000 0.000000 0.000000
	CHANNELS 6 Xposition Yposition Zposition Xrotation Yrotation Zrotation
	JOINT LeftUpLeg_virtual
	{
		OFFSET 0.000000 0.000000 0.000000
		CHANNELS 3 Xrotation Yrotation Zrotation
		JOINT LeftUpLeg
		{
			OFFSET 18.735201 -5.666702 -4.541200
			CHANNELS 3 Xrotation Yrotation Zrotation
			JOINT LeftLeg
			{
				OFFSET -0.021200 -31.938179 0.493100
				CHANNELS 3 Xrotation Yrotation Zrotation
				JOINT LeftFoot
				{
					OFFSET 0.021200 -31.938179 -4.336299
					CHANNELS 3 Xrotation Yrotation Zrotation
					JOINT LeftToeBase
					{
						OFFSET 0.943001 -26.722000 15.023500
						CHANNELS 3 Xrotation Yrotation Zrotation
						End Site
						{
							OFFSET 0 0 0
						}
					}
				}
			}
		}
	}
	JOINT RightUpLeg_virtual
	{
		OFFSET 0.000000 0.000000 0.000000
		CHANNELS 3 Xrotation Yrotation Zrotation
		JOINT RightUpLeg
		{
			OFFSET -18.735201 -5.666702 -4.541200
			CHANNELS 3 Xrotation Yrotation Zrotation
			JOINT RightLeg
			{
				OFFSET 0.018946 -31.938133 0.493100
				CHANNELS 3 Xrotation Yrotation Zrotation
				JOINT RightFoot
				{
					OFFSET -0.018946 -31.938126 -4.336299
					CHANNELS 3 Xrotation Yrotation Zrotation
					JOINT RightToeBase
					{
						OFFSET -0.943001 -26.722004 15.023500
						CHANNELS 3 Xrotation Yrotation Zrotation
						End Site
						{
							OFFSET 0 0 0
						}
					}
				}
			}
		}
	}
	JOINT Hips_virtual
	{
		OFFSET 0.000000 0.000000 0.000000
		CHANNELS 3 Xrotation Yrotation Zrotation
		JOINT Hips
		{
			OFFSET -0.000000 -0.000000 -0.000000
			CHANNELS 3 Xrotation Yrotation Zrotation
			JOINT Spine
			{
				OFFSET 0.000000 10.199997 -0.299500
				CHANNELS 3 Xrotation Yrotation Zrotation
				JOINT Spine1
				{
					OFFSET 0.000000 11.900002 -1.516600
					CHANNELS 3 Xrotation Yrotation Zrotation
					JOINT Spine2
					{
						OFFSET 0.000000 13.600006 -2.842500
						CHANNELS 3 Xrotation Yrotation Zrotation
						JOINT Neck_virtual
						{
							OFFSET 0.000000 0.000000 0.000000
							CHANNELS 3 Xrotation Yrotation Zrotation
							JOINT Neck
							{
								OFFSET 0.000000 9.624100 -2.890100
								CHANNELS 3 Xrotation Yrotation Zrotation
								JOINT Head
								{
									OFFSET 0.000000 14.068802 -1.351900
									CHANNELS 3 Xrotation Yrotation Zrotation
									End Site
									{
										OFFSET 0 0 0
									}
								}
							}
						}
						JOINT LeftShoulder_virtual
						{
							OFFSET 0.000000 0.000000 0.000000
							CHANNELS 3 Xrotation Yrotation Zrotation
							JOINT LeftShoulder
							{
								OFFSET 15.263000 10.923401 -0.547700
								CHANNELS 3 Xrotation Yrotation Zrotation
								JOINT LeftArm
								{
									OFFSET 25.438599 -2.830597 -13.032500
									CHANNELS 3 Xrotation Yrotation Zrotation
									JOINT LeftForeArm
									{
										OFFSET 29.960503 0.000000 0.000000
										CHANNELS 3 Xrotation Yrotation Zrotation
										JOINT LeftHand
										{
											OFFSET 27.849251 0.000000 0.000000
											CHANNELS 3 Xrotation Yrotation Zrotation
											End Site
											{
												OFFSET 0 0 0
											}
										}
									}
								}
							}
						}
						JOINT RightShoulder_virtual
						{
							OFFSET 0.000000 0.000000 0.000000
							CHANNELS 3 Xrotation Yrotation Zrotation
							JOINT RightShoulder
							{
								OFFSET -15.263000 10.923401 -0.547700
								CHANNELS 3 Xrotation Yrotation Zrotation
								JOINT RightArm
								{
									OFFSET -25.438599 -2.830597 -13.032500
									CHANNELS 3 Xrotation Yrotation Zrotation
									JOINT RightForeArm
									{
										OFFSET -29.960503 0.000000 0.000000
										CHANNELS 3 Xrotation Yrotation Zrotation
										JOINT RightHand
										{
											OFFSET -27.849251 0.000000 0.000000
											CHANNELS 3 Xrotation Yrotation Zrotation
											End Site
											{
												OFFSET 0 0 0
											}
										}
									}
								}
							}
						}
					}
				}
			}
		}
	}
}
MOTION
Frames: 5
Frame Time: 0.03333333
-27.949841 47.697460 269.683136 0.000000 0.000000 0.000000 -173.074644 4.052279 -146.001086 -119.113458 -11.488913 22.616589 93.565675 0.182282 3.457199 29.608491 -3.500153 -0.523826 0.000000 0.000000 0.000000 -144.757827 10.462010 163.114316 -85.709585 7.259790 -12.638219 99.753649 -8.077003 -8.547427 39.500312 -4.996619 -12.055901 0.000000 0.000000 0.000000 -43.633072 -78.790480 -36.222938 -101.573034 -70.227500 -112.943339 15.800924 -3.200487 -6.731443 4.814089 -0.877447 -2.599490 0.000000 0.000000 0.000000 6.523496 -0.494131 -0.442847 2.412979 0.533075 -0.596824 0.000000 0.000000 0.000000 3.318766 0.514351 -1.406989 2.081508 -2.310620 -8.909788 -14.655323 -31.094580 -47.119262 7.524428 -62.668393 -2.009072 0.000000 0.000000 0.000000 1.069249 0.665894 -1.944788 3.126683 10.392187 -7.995707 -17.583180 22.679899 22.679771 6.035015 74.103687 -11.051406 0.000000 0.000000 0.000000 
-27.960310 47.767719 269.716919 0.000000 0.000000 0.000000 -173.187588 4.341884 -146.101175 -119.206882 -11.536056 22.583739 93.607606 0.173381 3.443155 29.639240 -3.504722 -0.553065 0.000000 0.000000 0.000000 -144.563249 10.237451 162.859003 -85.895776 7.198750 -12.521439 99.791939 -8.079173 -8.527221 39.553632 -5.011683 -12.033342 0.000000 0.000000 0.000000 -43.282752 -78.742451 -35.904447 -101.532893 -70.146384 -112.867319 15.826020 -3.227118 -6.746107 4.833586 -0.897900 -2.616859 0.000000 0.000000 0.000000 6.470896 -0.510051 -0.449155 2.389208 0.516506 -0.591254 0.000000 0.000000 0.000000 3.243664 0.503050 -1.421320 1.994296 -2.443573 -8.849929 -14.653348 -31.141240 -46.955645 7.592019 -62.639153 -1.926628 0.000000 0.000000 0.000000 0.880822 0.623072 -2.031222 2.948481 10.175818 -8.365463 -17.951882 22.919861 22.556020 6.085894 74.579901 -11.204403 0.000000 0.000000 0.000000 
-27.970676 47.838482 269.747009 0.000000 0.000000 0.000000 -173.305955 4.612456 -146.198068 -119.297805 -11.588343 22.549716 93.643943 0.165011 3.429309 29.664208 -3.508558 -0.581575 0.000000 0.000000 0.000000 -144.364203 10.036296 162.594511 -86.075410 7.136322 -12.411794 99.823126 -8.080177 -8.507789 39.598732 -5.024639 -12.009686 0.000000 0.000000 0.000000 -42.940969 -78.700698 -35.594004 -101.566928 -70.060918 -112.848584 15.845612 -3.250716 -6.756902 4.850454 -0.917077 -2.631839 0.000000 0.000000 0.000000 6.422096 -0.523395 -0.455001 2.367432 0.500630 -0.585655 0.000000 0.000000 0.000000 3.173612 0.493004 -1.435544 1.911853 -2.573944 -8.793777 -14.645843 -31.185025 -46.793213 7.661145 -62.610070 -1.844067 0.000000 0.000000 0.000000 0.707533 0.583689 -2.109036 2.782409 9.976525 -8.700920 -18.304065 23.154768 22.423361 6.136507 75.013659 -11.355652 0.000000 0.000000 0.000000 
-27.981340 47.907593 269.773132 0.000000 0.000000 0.000000 -173.427874 4.865372 -146.291997 -119.385655 -11.644470 22.515413 93.674911 0.157211 3.415623 29.683763 -3.511602 -0.609355 0.000000 0.000000 0.000000 -144.162617 9.855625 162.325183 -86.247742 7.073114 -12.309615 99.847605 -8.080069 -8.489260 39.635663 -5.035435 -11.985163 0.000000 0.000000 0.000000 -42.608397 -78.664696 -35.291755 -101.664600 -69.971654 -112.877489 15.859291 -3.271881 -6.764036 4.864462 -0.935219 -2.644506 0.000000 0.000000 0.000000 6.376681 -0.534653 -0.460475 2.347393 0.485312 -0.580151 0.000000 0.000000 0.000000 3.108608 0.483805 -1.449671 1.834391 -2.701895 -8.741810 -14.631729 -31.225139 -46.634172 7.731001 -62.579860 -1.763207 0.000000 0.000000 0.000000 0.548549 0.546819 -2.179111 2.628228 9.791157 -9.005771 -18.642581 23.386373 22.277678 6.189254 75.408444 -11.509859 0.000000 0.000000 0.000000 
-27.992579 47.973446 269.795654 0.000000 0.000000 0.000000 -173.552061 5.102156 -146.383057 -119.469858 -11.703410 22.481906 93.700790 0.150084 3.402050 29.698376 -3.513735 -0.636342 0.000000 0.000000 0.000000 -143.960621 9.692586 162.055500 -86.412049 7.009764 -12.214754 99.865972 -8.078938 -8.471720 39.664770 -5.044116 -11.960023 0.000000 0.000000 0.000000 -42.285746 -78.633461 -34.997961 -101.812138 -69.878067 -112.941850 15.866649 -3.291090 -6.767948 4.875366 -0.952510 -2.655061 0.000000 0.000000 0.000000 6.334064 -0.544349 -0.465729 2.328781 0.470400 -0.574883 0.000000 0.000000 0.000000 3.048395 0.475100 -1.463738 1.761901 -2.827504 -8.694446 -14.611006 -31.260478 -46.480725 7.800227 -62.547109 -1.686105 0.000000 0.000000 0.000000 0.402659 0.511606 -2.242632 2.485392 9.616771 -9.284899 -18.970745 23.616595 22.116219 6.246862 75.769071 -11.671788 0.000000 0.000000 0.000000 
